<mxfile host="Electron" agent="Mozilla/5.0 (Windows NT 10.0; Win64; x64) AppleWebKit/537.36 (KHTML, like Gecko) draw.io/28.0.6 Chrome/138.0.7204.100 Electron/37.2.3 Safari/537.36" version="28.0.6">
  <diagram name="Страница — 1" id="mATLnQjk5c72L6_-liW5">
    <mxGraphModel dx="2066" dy="1201" grid="1" gridSize="10" guides="1" tooltips="1" connect="1" arrows="1" fold="1" page="1" pageScale="1" pageWidth="827" pageHeight="1169" background="#ffffff" math="0" shadow="0">
      <root>
        <mxCell id="0" />
        <mxCell id="1" parent="0" />
        <mxCell id="S5C_lDYp4HKMn4KK-aub-1" value="" style="rounded=0;whiteSpace=wrap;html=1;fillColor=#dae8fc;strokeColor=#6c8ebf;" vertex="1" parent="1">
          <mxGeometry x="200" y="20" width="820" height="450" as="geometry" />
        </mxCell>
        <mxCell id="S5C_lDYp4HKMn4KK-aub-2" value="&lt;strong data-end=&quot;85&quot; data-start=&quot;66&quot;&gt;Virtual Network&lt;/strong&gt;: e.g., Docker Network, Kubernetes Cluster Network, etc." style="text;html=1;align=center;verticalAlign=middle;resizable=0;points=[];autosize=1;strokeColor=none;fillColor=none;" vertex="1" parent="1">
          <mxGeometry x="610" y="30" width="410" height="30" as="geometry" />
        </mxCell>
        <mxCell id="S5C_lDYp4HKMn4KK-aub-3" value="" style="rounded=0;whiteSpace=wrap;html=1;fillColor=#d5e8d4;strokeColor=#82b366;" vertex="1" parent="1">
          <mxGeometry x="370" y="110" width="270" height="330" as="geometry" />
        </mxCell>
        <mxCell id="S5C_lDYp4HKMn4KK-aub-4" value="LLMSessionGatway" style="text;html=1;align=center;verticalAlign=middle;whiteSpace=wrap;rounded=0;" vertex="1" parent="1">
          <mxGeometry x="550" y="120" width="60" height="30" as="geometry" />
        </mxCell>
        <mxCell id="S5C_lDYp4HKMn4KK-aub-5" value="API" style="rounded=0;whiteSpace=wrap;html=1;" vertex="1" parent="1">
          <mxGeometry x="450" y="290" width="80" height="60" as="geometry" />
        </mxCell>
        <mxCell id="S5C_lDYp4HKMn4KK-aub-6" value="Application" style="rounded=0;whiteSpace=wrap;html=1;" vertex="1" parent="1">
          <mxGeometry x="450" y="230" width="160" height="60" as="geometry" />
        </mxCell>
        <mxCell id="S5C_lDYp4HKMn4KK-aub-7" value="Infrastructure" style="rounded=0;whiteSpace=wrap;html=1;" vertex="1" parent="1">
          <mxGeometry x="530" y="290" width="80" height="60" as="geometry" />
        </mxCell>
        <mxCell id="S5C_lDYp4HKMn4KK-aub-8" value="Domain" style="rounded=0;whiteSpace=wrap;html=1;" vertex="1" parent="1">
          <mxGeometry x="450" y="170" width="160" height="60" as="geometry" />
        </mxCell>
        <mxCell id="S5C_lDYp4HKMn4KK-aub-9" value="" style="rounded=0;whiteSpace=wrap;html=1;" vertex="1" parent="1">
          <mxGeometry x="400" y="170" width="50" height="180" as="geometry" />
        </mxCell>
        <mxCell id="S5C_lDYp4HKMn4KK-aub-10" value="Observability" style="text;html=1;align=center;verticalAlign=middle;resizable=0;points=[];autosize=1;strokeColor=none;fillColor=none;rotation=90;" vertex="1" parent="1">
          <mxGeometry x="380" y="245" width="90" height="30" as="geometry" />
        </mxCell>
        <mxCell id="S5C_lDYp4HKMn4KK-aub-13" value="Tests" style="rounded=0;whiteSpace=wrap;html=1;" vertex="1" parent="1">
          <mxGeometry x="450" y="360" width="160" height="60" as="geometry" />
        </mxCell>
        <mxCell id="S5C_lDYp4HKMn4KK-aub-19" value="ActiveSessionStore" style="rounded=0;whiteSpace=wrap;html=1;fillColor=#fff2cc;strokeColor=#d6b656;" vertex="1" parent="1">
          <mxGeometry x="700" y="140" width="120" height="60" as="geometry" />
        </mxCell>
        <mxCell id="S5C_lDYp4HKMn4KK-aub-20" value="ArchiveSessionStore" style="rounded=0;whiteSpace=wrap;html=1;fillColor=#fff2cc;strokeColor=#d6b656;" vertex="1" parent="1">
          <mxGeometry x="700" y="260" width="120" height="60" as="geometry" />
        </mxCell>
        <mxCell id="S5C_lDYp4HKMn4KK-aub-21" value="ChatBackend" style="rounded=0;whiteSpace=wrap;html=1;fillColor=#d5e8d4;strokeColor=#82b366;" vertex="1" parent="1">
          <mxGeometry x="700" y="380" width="120" height="60" as="geometry" />
        </mxCell>
        <mxCell id="S5C_lDYp4HKMn4KK-aub-22" value="" style="endArrow=classic;html=1;rounded=0;exitX=1;exitY=0.5;exitDx=0;exitDy=0;entryX=0;entryY=0.5;entryDx=0;entryDy=0;" edge="1" parent="1" source="S5C_lDYp4HKMn4KK-aub-7" target="S5C_lDYp4HKMn4KK-aub-21">
          <mxGeometry width="50" height="50" relative="1" as="geometry">
            <mxPoint x="320" y="350" as="sourcePoint" />
            <mxPoint x="550" y="770" as="targetPoint" />
          </mxGeometry>
        </mxCell>
        <mxCell id="S5C_lDYp4HKMn4KK-aub-23" value="" style="endArrow=classic;html=1;rounded=0;exitX=1;exitY=0.5;exitDx=0;exitDy=0;entryX=0;entryY=0.5;entryDx=0;entryDy=0;" edge="1" parent="1" source="S5C_lDYp4HKMn4KK-aub-7" target="S5C_lDYp4HKMn4KK-aub-20">
          <mxGeometry width="50" height="50" relative="1" as="geometry">
            <mxPoint x="320" y="350" as="sourcePoint" />
            <mxPoint x="370" y="300" as="targetPoint" />
          </mxGeometry>
        </mxCell>
        <mxCell id="S5C_lDYp4HKMn4KK-aub-24" value="" style="endArrow=classic;html=1;rounded=0;exitX=1;exitY=0.5;exitDx=0;exitDy=0;entryX=0;entryY=0.5;entryDx=0;entryDy=0;" edge="1" parent="1" source="S5C_lDYp4HKMn4KK-aub-7" target="S5C_lDYp4HKMn4KK-aub-19">
          <mxGeometry width="50" height="50" relative="1" as="geometry">
            <mxPoint x="320" y="350" as="sourcePoint" />
            <mxPoint x="370" y="300" as="targetPoint" />
          </mxGeometry>
        </mxCell>
        <mxCell id="S5C_lDYp4HKMn4KK-aub-27" value="&lt;strong data-end=&quot;50&quot; data-start=&quot;32&quot;&gt;Service:&lt;/strong&gt;&amp;nbsp;Redis, etc." style="text;html=1;align=center;verticalAlign=middle;resizable=0;points=[];autosize=1;strokeColor=none;fillColor=none;" vertex="1" parent="1">
          <mxGeometry x="690" y="110" width="130" height="30" as="geometry" />
        </mxCell>
        <mxCell id="S5C_lDYp4HKMn4KK-aub-28" value="&lt;strong data-end=&quot;50&quot; data-start=&quot;32&quot;&gt;Service:&lt;/strong&gt;&amp;nbsp;Azure Blob, etc." style="text;html=1;align=center;verticalAlign=middle;resizable=0;points=[];autosize=1;strokeColor=none;fillColor=none;" vertex="1" parent="1">
          <mxGeometry x="690" y="230" width="160" height="30" as="geometry" />
        </mxCell>
        <mxCell id="S5C_lDYp4HKMn4KK-aub-29" value="&lt;strong data-end=&quot;50&quot; data-start=&quot;32&quot;&gt;Service:&lt;/strong&gt;&amp;nbsp;Llama 3.1 client, etc." style="text;html=1;align=center;verticalAlign=middle;resizable=0;points=[];autosize=1;strokeColor=none;fillColor=none;" vertex="1" parent="1">
          <mxGeometry x="690" y="350" width="180" height="30" as="geometry" />
        </mxCell>
        <mxCell id="S5C_lDYp4HKMn4KK-aub-34" style="edgeStyle=orthogonalEdgeStyle;rounded=0;orthogonalLoop=1;jettySize=auto;html=1;entryX=1;entryY=0.5;entryDx=0;entryDy=0;" edge="1" parent="1" source="S5C_lDYp4HKMn4KK-aub-31" target="S5C_lDYp4HKMn4KK-aub-20">
          <mxGeometry relative="1" as="geometry" />
        </mxCell>
        <mxCell id="S5C_lDYp4HKMn4KK-aub-35" style="edgeStyle=orthogonalEdgeStyle;rounded=0;orthogonalLoop=1;jettySize=auto;html=1;entryX=1;entryY=0.5;entryDx=0;entryDy=0;" edge="1" parent="1" source="S5C_lDYp4HKMn4KK-aub-31" target="S5C_lDYp4HKMn4KK-aub-19">
          <mxGeometry relative="1" as="geometry" />
        </mxCell>
        <mxCell id="S5C_lDYp4HKMn4KK-aub-31" value="ActiveToArchive&lt;div&gt;Deamon&lt;/div&gt;" style="rounded=0;whiteSpace=wrap;html=1;fillColor=#d5e8d4;strokeColor=#82b366;" vertex="1" parent="1">
          <mxGeometry x="880" y="200" width="120" height="60" as="geometry" />
        </mxCell>
        <mxCell id="S5C_lDYp4HKMn4KK-aub-42" style="edgeStyle=orthogonalEdgeStyle;rounded=0;orthogonalLoop=1;jettySize=auto;html=1;" edge="1" parent="1" source="S5C_lDYp4HKMn4KK-aub-36" target="S5C_lDYp4HKMn4KK-aub-5">
          <mxGeometry relative="1" as="geometry" />
        </mxCell>
        <mxCell id="S5C_lDYp4HKMn4KK-aub-36" value="Kong Gateway" style="rounded=0;whiteSpace=wrap;html=1;fillColor=#fff2cc;strokeColor=#d6b656;" vertex="1" parent="1">
          <mxGeometry x="230" y="290" width="120" height="60" as="geometry" />
        </mxCell>
        <mxCell id="S5C_lDYp4HKMn4KK-aub-37" value="Keycloak" style="rounded=0;whiteSpace=wrap;html=1;fillColor=#fff2cc;strokeColor=#d6b656;" vertex="1" parent="1">
          <mxGeometry x="230" y="150" width="120" height="60" as="geometry" />
        </mxCell>
        <mxCell id="S5C_lDYp4HKMn4KK-aub-38" value="PostgreSQL" style="rounded=0;whiteSpace=wrap;html=1;fillColor=#fff2cc;strokeColor=#d6b656;" vertex="1" parent="1">
          <mxGeometry x="230" y="120" width="120" height="30" as="geometry" />
        </mxCell>
        <mxCell id="S5C_lDYp4HKMn4KK-aub-39" value="SPA Client" style="rounded=0;whiteSpace=wrap;html=1;fillColor=#f5f5f5;strokeColor=#666666;fontColor=#333333;" vertex="1" parent="1">
          <mxGeometry x="20" y="210" width="120" height="60" as="geometry" />
        </mxCell>
        <mxCell id="S5C_lDYp4HKMn4KK-aub-44" value="" style="endArrow=classic;html=1;rounded=0;exitX=1;exitY=0.617;exitDx=0;exitDy=0;exitPerimeter=0;entryX=0.008;entryY=0.617;entryDx=0;entryDy=0;entryPerimeter=0;" edge="1" parent="1" source="S5C_lDYp4HKMn4KK-aub-39" target="S5C_lDYp4HKMn4KK-aub-36">
          <mxGeometry width="50" height="50" relative="1" as="geometry">
            <mxPoint x="320" y="340" as="sourcePoint" />
            <mxPoint x="370" y="290" as="targetPoint" />
          </mxGeometry>
        </mxCell>
        <mxCell id="S5C_lDYp4HKMn4KK-aub-45" value="" style="endArrow=classic;startArrow=classic;html=1;rounded=0;exitX=1;exitY=0.5;exitDx=0;exitDy=0;entryX=0;entryY=0.5;entryDx=0;entryDy=0;" edge="1" parent="1" source="S5C_lDYp4HKMn4KK-aub-39" target="S5C_lDYp4HKMn4KK-aub-37">
          <mxGeometry width="50" height="50" relative="1" as="geometry">
            <mxPoint x="320" y="340" as="sourcePoint" />
            <mxPoint x="370" y="290" as="targetPoint" />
          </mxGeometry>
        </mxCell>
        <mxCell id="S5C_lDYp4HKMn4KK-aub-46" value="Identity Provider" style="text;html=1;align=center;verticalAlign=middle;resizable=0;points=[];autosize=1;strokeColor=none;fillColor=none;" vertex="1" parent="1">
          <mxGeometry x="240" y="90" width="110" height="30" as="geometry" />
        </mxCell>
        <mxCell id="S5C_lDYp4HKMn4KK-aub-47" value="Gateway" style="text;html=1;align=center;verticalAlign=middle;resizable=0;points=[];autosize=1;strokeColor=none;fillColor=none;" vertex="1" parent="1">
          <mxGeometry x="280" y="260" width="70" height="30" as="geometry" />
        </mxCell>
        <mxCell id="S5C_lDYp4HKMn4KK-aub-52" value="" style="sketch=0;html=1;aspect=fixed;strokeColor=none;shadow=0;fillColor=#3B8DF1;verticalAlign=top;labelPosition=center;verticalLabelPosition=bottom;shape=mxgraph.gcp2.lock" vertex="1" parent="1">
          <mxGeometry x="590.5" y="30" width="19.5" height="25" as="geometry" />
        </mxCell>
      </root>
    </mxGraphModel>
  </diagram>
</mxfile>
